<svg width="270" height="30" viewBox="0 0 270 30" fill="none" xmlns="http://www.w3.org/2000/svg">
<g clip-path="url(#clip0_233_1282)">
<path d="M18.7306 15.528H16.2902C16.2902 19.4269 16.2902 24.2261 16.2902 24.2261H12.674C12.674 24.2261 12.674 19.4734 12.674 15.528H10.9551V12.4538H12.674V10.4653C12.674 9.04121 13.3508 6.81592 16.3234 6.81592L19.0031 6.82619V9.81036C19.0031 9.81036 17.3748 9.81036 17.0582 9.81036C16.7416 9.81036 16.2914 9.96866 16.2914 10.6478V12.4544H19.0466L18.7306 15.528Z" fill="#222222"/>
<path fill-rule="evenodd" clip-rule="evenodd" d="M77.6885 7.016H76.6692V11.4766C76.6692 11.8746 76.7033 12.1444 76.7598 12.3153C76.8623 12.6008 77.0894 12.7343 77.4184 12.7343C77.7913 12.7343 78.1792 12.5081 78.5862 12.0416V12.6566H79.6082V7.016H78.5862V11.3274C78.3594 11.6475 78.1448 11.8059 77.9404 11.8059C77.8036 11.8059 77.7231 11.7248 77.7007 11.5665C77.6885 11.533 77.6885 11.4087 77.6885 11.169V7.016ZM73.1288 7.52638C72.9115 7.81149 72.809 8.25221 72.809 8.85528V10.8305C72.809 11.4299 72.9115 11.8749 73.1288 12.157C73.4114 12.5418 73.8095 12.7343 74.319 12.7343C74.8309 12.7343 75.2286 12.5418 75.5113 12.157C75.7255 11.8749 75.828 11.4302 75.828 10.8305V8.85528C75.828 8.25221 75.7255 7.81119 75.5113 7.52638C75.2286 7.1406 74.8309 6.94786 74.319 6.94786C73.8095 6.94786 73.4114 7.1406 73.1288 7.52638ZM70.8804 8.05978L70.0757 5.0874H68.8834C69.0014 5.43431 69.1219 5.7819 69.2424 6.12956L69.2424 6.12959L69.2424 6.1296L69.2424 6.12966C69.3657 6.48538 69.489 6.84119 69.6098 7.19646C69.9735 8.25221 70.2003 9.04802 70.3031 9.59124V12.6569H71.4362V9.59124L72.7998 5.0874H71.6535L70.8804 8.05978ZM81.267 24.6812C82.1432 24.5833 82.8709 23.9265 83.0759 23.0368C83.3677 21.7696 83.369 20.3857 83.369 19.0808V19.0563C83.369 17.7585 83.369 16.3843 83.0799 15.1247C82.8746 14.2347 82.1466 13.5782 81.2704 13.4803C79.1951 13.2486 77.0946 13.2474 75.0037 13.2486C72.9121 13.2474 70.8116 13.2486 68.7363 13.4803C67.8601 13.5779 67.1328 14.2347 66.9281 15.1247C66.6365 16.3923 66.6328 17.7758 66.6328 19.0808C66.6328 20.3857 66.6328 21.7696 66.9247 23.0368C67.1291 23.9268 67.8571 24.5833 68.7333 24.6812C70.8083 24.9129 72.909 24.9141 75 24.9129C77.0918 24.9141 79.1914 24.9129 81.267 24.6812ZM79.4043 17.4661C79.6964 17.084 80.0982 16.894 80.6156 16.894C81.1232 16.894 81.5256 17.0843 81.8083 17.4655C82.0203 17.7479 82.1213 18.1843 82.1213 18.7806V19.9367H80.0982V20.9268C80.0982 21.443 80.2682 21.7008 80.6156 21.7008C80.8645 21.7008 81.01 21.5658 81.0677 21.2954C81.0766 21.2404 81.0898 21.0155 81.0898 20.6104H82.1213V20.7574C82.1213 21.0836 82.1093 21.308 82.0998 21.4092C82.0661 21.6333 81.9863 21.8361 81.8635 22.0154C81.5836 22.4208 81.169 22.6206 80.6408 22.6206C80.1117 22.6206 79.7087 22.43 79.4169 22.0488C79.2014 21.7692 79.0918 21.3297 79.0918 20.7365V18.7812C79.0918 18.1849 79.1897 17.7485 79.4043 17.4661ZM80.0988 19.0952H81.1104V18.5786C81.1104 18.0627 80.9409 17.8043 80.6064 17.8043C80.2685 17.8043 80.0988 18.0624 80.0988 18.5786V19.0952ZM73.4509 21.2278C73.2266 21.5449 73.0145 21.7011 72.8113 21.7011C72.6763 21.7011 72.5993 21.6216 72.5747 21.4645C72.5655 21.4319 72.5655 21.3086 72.5655 21.0716V16.9622H71.554V21.3752C71.554 21.7695 71.588 22.0359 71.6433 22.2053C71.7448 22.4883 71.9695 22.6209 72.2948 22.6209C72.6671 22.6209 73.0489 22.3962 73.4509 21.9353V22.5442H74.4631V16.9622H73.4509V21.2278ZM76.3491 17.4994C76.6753 17.0973 77.0225 16.8942 77.3944 16.8942C77.7965 16.8942 78.0678 17.1059 78.2025 17.5246C78.2703 17.7489 78.305 18.1178 78.305 18.6463V20.8689C78.305 21.3854 78.2703 21.7571 78.2025 21.9937C78.0675 22.4093 77.7968 22.621 77.3944 22.621C77.0344 22.621 76.6876 22.4209 76.3491 22.0032V22.544H75.3378V15.0527H76.3491V17.4994ZM76.853 21.7012C77.1452 21.7012 77.2931 21.4526 77.2931 20.9481V18.5659C77.2931 18.0626 77.1449 17.8041 76.853 17.8041C76.687 17.8041 76.5179 17.8833 76.3488 18.0506V21.4523C76.5179 21.6217 76.687 21.7012 76.853 21.7012ZM67.8809 16.107H69.0701V22.5437H70.1952V16.107H71.4066V15.0527H67.8809V16.107ZM74.8066 11.0227C74.8066 11.5444 74.6485 11.8056 74.3192 11.8056C73.9896 11.8056 73.8313 11.5447 73.8313 11.0227V8.65C73.8313 8.12826 73.9896 7.868 74.3192 7.868C74.6485 7.868 74.8066 8.12795 74.8066 8.65V11.0227Z" fill="#222222"/>
<path d="M131.25 22.2658H127.5V9.14073H131.25V22.2658ZM129.491 8.33638C128.52 8.33638 127.734 7.54887 127.734 6.57761C127.734 5.60636 128.522 4.81885 129.491 4.81885C130.462 4.8207 131.25 5.60821 131.25 6.57761C131.25 7.54887 130.462 8.33638 129.491 8.33638ZM144.375 22.2658H140.625V14.1508C140.625 13.2001 140.353 12.5345 139.185 12.5345C137.248 12.5345 136.875 14.1508 136.875 14.1508V22.2658H133.125V9.14073H136.875V10.3951C137.411 9.9845 138.75 9.14258 140.625 9.14258C141.84 9.14258 144.375 9.87008 144.375 14.2651V22.2658Z" fill="#222222"/>
<path fill-rule="evenodd" clip-rule="evenodd" d="M193.271 22.3043C192.704 22.4681 192.091 22.5508 191.448 22.5508C190.731 22.5508 190.042 22.4687 189.4 22.3061C188.157 21.9926 187.239 21.398 186.81 20.6319C186.625 20.3008 186.531 19.9479 186.531 19.5824C186.531 19.206 186.621 18.8241 186.799 18.4459C187.48 16.9946 189.275 16.0182 191.263 16.0182H191.32C191.159 15.7336 191.081 15.4387 191.081 15.1288C191.081 14.9747 191.101 14.8176 191.143 14.6575C189.057 14.6104 187.496 13.0829 187.496 11.0691C187.496 9.64743 188.633 8.26199 190.258 7.7025C190.744 7.53453 191.24 7.44873 191.728 7.44873H196.188C196.34 7.44873 196.475 7.54722 196.522 7.69162C196.569 7.83542 196.517 7.99372 196.394 8.08254L195.397 8.80457C195.337 8.84686 195.265 8.86982 195.191 8.86982H194.834C195.295 9.42267 195.565 10.2112 195.565 11.0963C195.565 12.0733 195.07 12.9971 194.171 13.701C193.476 14.2424 193.449 14.3917 193.449 14.7004C193.457 14.8702 193.941 15.4242 194.475 15.8019C195.719 16.6816 196.182 17.545 196.182 18.9854C196.182 20.4905 195.039 21.7908 193.271 22.3043ZM203.344 14.6539C203.344 14.8472 203.186 15.0043 202.993 15.0043H200.459V17.5402C200.459 17.7335 200.301 17.8906 200.11 17.8906H199.388C199.193 17.8906 199.036 17.7335 199.036 17.5402V15.0043H196.503C196.31 15.0043 196.153 14.8484 196.153 14.6539V13.9331C196.153 13.7397 196.31 13.5814 196.503 13.5814H199.036V11.048C199.036 10.854 199.193 10.6975 199.388 10.6975H200.11C200.301 10.6975 200.459 10.854 200.459 11.048V13.5814H202.993C203.186 13.5814 203.343 13.7385 203.343 13.9319L203.344 14.6539ZM192.818 17.3684L192.818 17.3684C192.776 17.3393 192.733 17.3099 192.689 17.2803C192.386 17.1873 192.063 17.1389 191.732 17.1347H191.692C190.174 17.1347 188.842 18.0537 188.842 19.1026C188.842 20.2445 189.983 21.1369 191.439 21.1369C193.36 21.1369 194.333 20.4735 194.333 19.1684C194.333 19.0452 194.319 18.9171 194.288 18.7884C194.159 18.284 193.697 17.9685 192.999 17.4913L192.991 17.4857C192.934 17.4481 192.877 17.4087 192.818 17.3684ZM191.915 13.5053H191.914H191.9C190.935 13.4751 189.971 12.3349 189.798 11.0154C189.702 10.2776 189.857 9.6142 190.224 9.19549C190.46 8.92481 190.771 8.78101 191.12 8.78101L191.159 8.78221C192.145 8.81061 193.089 9.91026 193.261 11.2311C193.359 11.97 193.194 12.666 192.822 13.0902C192.585 13.3621 192.278 13.5053 191.915 13.5053Z" fill="#222222"/>
<path d="M258.382 14.7688C258.022 14.5276 257.58 14.3198 257.068 14.1513C256.563 13.9851 255.992 13.8313 255.371 13.6945C254.88 13.5773 254.521 13.487 254.308 13.4267C254.1 13.367 253.892 13.2845 253.69 13.1795C253.495 13.0795 253.341 12.9592 253.232 12.822C253.129 12.6923 253.079 12.542 253.079 12.362C253.079 12.0685 253.235 11.8207 253.555 11.6045C253.887 11.3801 254.335 11.2667 254.885 11.2667C255.478 11.2667 255.91 11.3692 256.168 11.5713C256.433 11.7792 256.665 12.0738 256.857 12.4488C257.022 12.742 257.171 12.9457 257.315 13.0763C257.47 13.2167 257.692 13.2888 257.977 13.2888C258.289 13.2888 258.555 13.1748 258.765 12.9498C258.974 12.726 259.08 12.4698 259.08 12.1873C259.08 11.8942 258.999 11.5904 258.84 11.2857C258.682 10.9845 258.431 10.6938 258.093 10.4226C257.758 10.1529 257.331 9.93385 256.825 9.77166C256.322 9.61072 255.719 9.52916 255.033 9.52916C254.175 9.52916 253.417 9.65229 252.78 9.89447C252.134 10.1401 251.633 10.4985 251.29 10.9592C250.943 11.4232 250.768 11.9613 250.768 12.5582C250.768 13.1842 250.935 13.7173 251.265 14.141C251.59 14.5595 252.034 14.8938 252.584 15.1348C253.123 15.3701 253.8 15.5788 254.597 15.7545C255.183 15.8804 255.657 16.001 256.006 16.1132C256.34 16.2207 256.616 16.377 256.825 16.5779C257.025 16.7704 257.122 17.0151 257.122 17.3273C257.122 17.722 256.935 18.0442 256.553 18.3129C256.162 18.5879 255.641 18.7276 255.007 18.7276C254.545 18.7276 254.17 18.6585 253.891 18.5232C253.615 18.3882 253.398 18.2163 253.247 18.011C253.091 17.7973 252.942 17.527 252.806 17.206C252.684 16.912 252.533 16.6835 252.356 16.5295C252.171 16.3685 251.943 16.2873 251.68 16.2873C251.358 16.2873 251.089 16.3904 250.878 16.5938C250.666 16.7995 250.558 17.0504 250.558 17.3398C250.558 17.8029 250.723 18.2835 251.05 18.7673C251.373 19.2467 251.798 19.6351 252.314 19.9217C253.036 20.3157 253.96 20.5151 255.063 20.5151C255.982 20.5151 256.789 20.3688 257.463 20.081C258.143 19.7901 258.668 19.3804 259.023 18.8635C259.38 18.3438 259.56 17.7507 259.56 17.1001C259.56 16.5557 259.455 16.0876 259.248 15.7085C259.041 15.3317 258.75 15.0151 258.382 14.7688ZM258.596 23.4001C257.834 23.4001 257.117 23.2026 256.491 22.8563C256.035 22.9432 255.565 22.9892 255.085 22.9892C250.844 22.9892 247.406 19.4517 247.406 15.0882C247.406 14.5438 247.46 14.0126 247.561 13.4995C247.173 12.8192 246.949 12.0276 246.949 11.182C246.949 8.65166 248.943 6.6001 251.402 6.6001C252.274 6.6001 253.085 6.85822 253.772 7.30322C254.199 7.2276 254.637 7.1876 255.085 7.1876C259.326 7.1876 262.764 10.7251 262.764 15.0882C262.764 15.6701 262.702 16.2373 262.586 16.7835C262.882 17.3967 263.049 18.0876 263.049 18.8188C263.049 21.3482 261.055 23.4001 258.596 23.4001Z" fill="#222222"/>
</g>
<defs>
<clipPath id="clip0_233_1282">
<rect width="270" height="30" fill="white"/>
</clipPath>
</defs>
</svg>
